<?xml version="1.0" encoding="utf-8"?>
<svg class="services__img" xmlns="http://www.w3.org/2000/svg" viewBox="0 0 50 50" ><path d="M 24.984375 3 C 24.722656 3.003906 24.472656 3.109375 24.292969 3.296875 L 11.683594 16 L 2.101563 16 C 1.578125 16 1.046875 16.191406 0.667969 16.566406 C 0.289063 16.945313 0.101563 17.476563 0.101563 18 L 0.101563 22 C 0.101563 22.523438 0.289063 23.054688 0.667969 23.433594 C 1.046875 23.808594 1.578125 24 2.101563 24 L 2.257813 24 L 7.640625 41.890625 C 7.648438 41.910156 7.65625 41.929688 7.664063 41.953125 C 8.085938 43.074219 9.15625 44 10.5 44 L 29.878906 44 L 28.980469 42 L 10.5 42 C 10.042969 42 9.714844 41.722656 9.539063 41.25 L 3.957031 22.710938 C 3.828125 22.289063 3.441406 22 3 22 L 2.101563 22 L 2.101563 18 L 37.890625 18 C 38.046875 18.039063 38.210938 18.039063 38.367188 18 L 48.097656 18 L 48.097656 22 L 47.199219 22 C 47.164063 22 47.132813 22 47.097656 22.003906 C 46.632813 22.042969 46.257813 22.402344 46.195313 22.863281 L 44.128906 29.488281 L 46.015625 30.152344 L 47.9375 24 L 48.097656 24 C 48.621094 24 49.152344 23.808594 49.53125 23.433594 C 49.910156 23.054688 50.097656 22.523438 50.097656 22 L 50.097656 18 C 50.097656 17.476563 49.910156 16.945313 49.53125 16.566406 C 49.152344 16.191406 48.621094 16 48.097656 16 L 38.511719 16 L 25.703125 3.289063 C 25.511719 3.101563 25.253906 2.996094 24.984375 3 Z M 25.003906 5.414063 L 35.671875 16 L 14.5 16 Z M 25.105469 25 C 24.757813 24.988281 24.433594 25.152344 24.238281 25.441406 C 24.046875 25.726563 24.015625 26.09375 24.15625 26.410156 L 33.15625 46.410156 C 33.316406 46.761719 33.660156 46.992188 34.046875 47 C 34.433594 47.007813 34.789063 46.792969 34.964844 46.449219 L 37.386719 41.597656 L 43.347656 46.753906 C 43.550781 46.929688 43.816406 47.015625 44.082031 46.996094 C 44.347656 46.976563 44.59375 46.847656 44.765625 46.644531 L 47.863281 42.976563 C 48.039063 42.773438 48.121094 42.507813 48.097656 42.242188 C 48.074219 41.976563 47.945313 41.730469 47.738281 41.5625 L 41.71875 36.566406 L 45.640625 33.816406 C 45.949219 33.601563 46.109375 33.234375 46.058594 32.863281 C 46.007813 32.492188 45.75 32.179688 45.398438 32.058594 L 25.398438 25.058594 C 25.304688 25.023438 25.207031 25.003906 25.105469 25 Z M 26.9375 27.714844 L 42.898438 33.296875 L 39.496094 35.683594 C 39.242188 35.859375 39.082031 36.148438 39.070313 36.460938 C 39.058594 36.769531 39.191406 37.070313 39.429688 37.269531 L 45.6875 42.457031 L 43.890625 44.582031 L 37.722656 39.246094 C 37.488281 39.042969 37.175781 38.960938 36.871094 39.019531 C 36.570313 39.078125 36.3125 39.277344 36.171875 39.550781 L 34.113281 43.667969 Z" fill="#e56a6a"/></svg>
