<?xml version="1.0" encoding="utf-8"?>
<svg  class="services__img" xmlns="http://www.w3.org/2000/svg" width="50" height="50" viewBox="0 0 50 50" fill="#000000"><path d="M 2.8007812 8 C 1.2657812 8 0 9.2657813 0 10.800781 L 0 37 C 0 38.645 1.355 40 3 40 L 7.09375 40 C 7.57075 42.828 10.039 45 13 45 C 15.961 45 18.43025 42.828 18.90625 40 L 34.09375 40 C 34.57075 42.828 37.039 45 40 45 C 42.961 45 45.43025 42.828 45.90625 40 L 47 40 C 47.832 40 48.551031 39.613031 49.082031 39.082031 C 49.613031 38.551031 50 37.832 50 37 L 50 27.402344 C 50 26.277344 49.582219 25.25475 49.199219 24.46875 C 48.812219 23.68775 48.421875 23.123047 48.421875 23.123047 L 48.410156 23.111328 L 44.292969 17.589844 L 44.28125 17.576172 C 43.39525 16.468172 41.973 15 40 15 L 32 15 C 31.641 15 31.309 15.082031 31 15.207031 L 31 10.902344 C 31 9.3013437 29.698656 8 28.097656 8 L 2.8007812 8 z M 2.8007812 10 L 28.097656 10 C 28.499656 10 29 10.500344 29 10.902344 L 29 38 L 18.90625 38 C 18.42925 35.172 15.961 33 13 33 C 10.039 33 7.56975 35.172 7.09375 38 L 3 38 C 2.445 38 2 37.555 2 37 L 2 10.800781 C 2 10.335781 2.3357812 10 2.8007812 10 z M 14.820312 11.210938 C 14.409312 11.157937 14.0075 11.367469 13.8125 11.730469 L 4.7539062 28.632812 C 4.4069062 29.281813 4.4237813 30.043875 4.8007812 30.671875 C 5.2627813 31.442875 6.1367969 31.853188 7.0917969 31.617188 C 7.0917969 31.617187 8.8390312 31.156094 11.207031 30.496094 C 11.593031 31.379094 12.476 32 13.5 32 C 14.879 32 16 30.878 16 29.5 C 16 29.439 15.989516 29.353969 15.978516 29.292969 C 15.973516 29.267969 15.970703 29.233125 15.970703 29.203125 C 16.281703 29.115125 16.653375 29.015781 16.984375 28.925781 L 17 28.921875 L 17 30.5 C 17 31.878 18.121 33 19.5 33 C 20.879 33 22 31.878 22 30.5 L 22.001953 27.53125 C 26.449953 26.27325 26.450672 26.272188 26.513672 25.492188 C 27.046672 18.373188 21.909313 12.100938 14.820312 11.210938 z M 15.240234 13.298828 C 20.715234 14.313828 24.658828 19.144078 24.548828 24.705078 C 24.289573 24.785555 23.445371 25.026262 22.878906 25.191406 C 22.692515 20.236859 19.244153 15.998119 14.439453 14.792969 L 15.240234 13.298828 z M 13.458984 16.623047 C 17.858343 17.475254 21.004039 21.384428 20.878906 25.876953 C 20.342789 26.242803 20 26.859073 20 27.53125 L 20 30.498047 C 20 30.774047 19.775 30.998047 19.5 30.998047 C 19.225 30.998047 19 30.774047 19 30.498047 L 19 28.429688 C 19 27.533687 18.272906 26.804688 17.378906 26.804688 C 17.233906 26.804688 17.088313 26.823328 16.945312 26.861328 L 16.458984 26.994141 C 16.094984 27.092141 15.683563 27.205781 15.351562 27.300781 C 14.250562 27.615781 13.847141 28.650359 13.994141 29.568359 C 13.960141 29.811359 13.752 30 13.5 30 C 13.225 30 13 29.776 13 29.5 C 13 29.363 12.971969 29.227562 12.917969 29.101562 C 12.734969 28.678563 12.100141 28.185875 11.244141 28.421875 C 8.5731406 29.157875 6.5833125 29.683594 6.5703125 29.683594 L 6.5175781 29.576172 L 8.2695312 26.306641 A 2.5 2.5 0 0 0 9.9140625 26.925781 A 2.5 2.5 0 0 0 10.568359 22.015625 L 13.458984 16.623047 z M 32 17 L 36 17 L 36 26 C 36 26.832 36.386969 27.551031 36.917969 28.082031 C 37.448969 28.613031 38.168 29 39 29 L 48 29 L 48 37 C 48 37.168 47.886969 37.448969 47.667969 37.667969 C 47.448969 37.886969 47.168 38 47 38 L 45.90625 38 C 45.42925 35.172 42.961 33 40 33 C 37.039 33 34.56975 35.172 34.09375 38 L 31 38 L 31 18 C 31 17.832 31.113031 17.551031 31.332031 17.332031 C 31.551031 17.113031 31.832 17 32 17 z M 38 17 L 40 17 C 40.828 17 42.00375 17.934219 42.71875 18.824219 L 46.78125 24.273438 C 46.78125 24.273438 47.086344 24.711469 47.402344 25.355469 C 47.656344 25.871469 47.800813 26.472 47.882812 27 L 39 27 C 38.832 27 38.551031 26.886969 38.332031 26.667969 C 38.113031 26.448969 38 26.168 38 26 L 38 17 z M 16.320312 19.90625 A 2.5 2.5 0 0 0 16.320312 24.90625 A 2.5 2.5 0 0 0 16.320312 19.90625 z M 13 35 C 15.223 35 17 36.777 17 39 C 17 41.223 15.223 43 13 43 C 10.777 43 9 41.223 9 39 C 9 36.777 10.777 35 13 35 z M 40 35 C 42.223 35 44 36.777 44 39 C 44 41.223 42.223 43 40 43 C 37.777 43 36 41.223 36 39 C 36 36.777 37.777 35 40 35 z" fill="#e56a6a"/></svg>
