<svg xmlns="http://www.w3.org/2000/svg" viewBox="0 0 235.62 97.71"><defs><style>.cls-1{fill:#72828c;opacity:0.2;}.cls-2{fill:#e56a6a;}</style></defs><g id="Calque_2" data-name="Calque 2"><g id="Calque_1-2" data-name="Calque 1"><path class="cls-1" d="M110.91,0a3.73,3.73,0,0,0-.92.18,3.31,3.31,0,0,0-1.59,1.22A7.15,7.15,0,0,0,107.61,3c-.75,1.91-2.62,7.54-3.54,10.19,0,.1,0,.21-.06.31a.67.67,0,0,0-.06.12L96.5,31.69l-.12.18a1.77,1.77,0,0,0-.12.37L80,71.36c0,.07,0,.13-.06.19L70.19,95a1.95,1.95,0,0,0,2.57,2.56l80.75-33.39a1.27,1.27,0,0,0,.18-.06c1.93-.62,8.67-2.94,10.44-3.54a5.2,5.2,0,0,0,3.05-2.2,4.74,4.74,0,0,0,.07-4.27c-2.2-5.17-7.7-21.48-19.84-33.63a83.87,83.87,0,0,0-34.12-20A6.78,6.78,0,0,0,110.91,0Zm.61,3.91s0,.09.79.3c6.32,1.71,21.29,7.92,32.35,19,11.32,11.33,16.57,26.73,19,32.42.32.75.18.74.19.73a2.44,2.44,0,0,1-.92.49c-1.87.62-8.67,3-10.38,3.54l-.12.06s0-.06-.12-.43a78.28,78.28,0,0,0-17.21-27.22,78.24,78.24,0,0,0-26.74-17c-.49-.19-.73-.32-.85-.37s.1-.22.12-.3a2.24,2.24,0,0,0,.18-.61c1-2.74,2.91-8.56,3.48-10A3.23,3.23,0,0,1,111.52,3.92ZM106,19.05c.34.14.68.25,1,.37,4.93,1.87,16.12,6.84,25.39,16.11,9.58,9.59,14.57,21.23,16.3,25.88.05.14.12.29.18.43L120.18,73.68a9.35,9.35,0,0,0,.67-3.35A9.77,9.77,0,1,0,107,79.12L75.69,92.06l6.1-14.71a7.78,7.78,0,1,0,5.86-12.88,5.14,5.14,0,0,0-.55.06l6.84-16.48a11.71,11.71,0,1,0,9.34-18.74,11.9,11.9,0,0,0-1.59.12Zm-2.68,14.16a7.82,7.82,0,1,1-7.45,10.2l3.91-9.34A7.78,7.78,0,0,1,103.28,33.21ZM130.62,41A8,8,0,0,0,123,50.67a9.76,9.76,0,1,0,15.44,7.94,9.59,9.59,0,0,0-1.52-5.13A7.82,7.82,0,0,0,130.62,41Zm0,3.9a4,4,0,0,1,3.54,5.62,9.63,9.63,0,0,0-5.49-1.71,9.79,9.79,0,0,0-2,.18v-.18A3.88,3.88,0,0,1,130.62,44.93Zm-2,7.82a5.84,5.84,0,0,1,4,1.65,1.67,1.67,0,0,0,.55.54,5.87,5.87,0,1,1-7.51-1.4,1.94,1.94,0,0,0,1-.49A5.85,5.85,0,0,1,128.67,52.75ZM111.09,64.47a5.86,5.86,0,1,1-5.86,5.86A5.83,5.83,0,0,1,111.09,64.47Zm-23.44,3.9a3.91,3.91,0,1,1-3.91,4.21l1.35-3.23A3.86,3.86,0,0,1,87.65,68.37Z"/><path class="cls-2" d="M66,81.73a1.09,1.09,0,0,1,.56.56,1,1,0,0,1,0,.8,1,1,0,0,1-1.34.56h-.05a30.32,30.32,0,0,0-6.68-1.92,49.65,49.65,0,0,0-7.06-.85,97.33,97.33,0,0,0-14.32.32A112.79,112.79,0,0,0,23,83.39c-2.38.53-4.7,1.14-6.94,1.81q-2.52.75-4.6,1.55l-.53,1.18a8.91,8.91,0,0,1-1.07,1.71,7.86,7.86,0,0,1-3.16,2.3,6.76,6.76,0,0,1-1.92.48l-.48,0H3.74a.84.84,0,0,1-.53-.16A2.37,2.37,0,0,1,2.84,92a1.41,1.41,0,0,1-.22-.91,1.52,1.52,0,0,1,.06-.42c0-.08.07-.15.1-.22l.06,0a.18.18,0,0,0,.05-.11,1.61,1.61,0,0,0,.32-.37l.37-.38L4,89.21c.43-.35.92-.73,1.49-1.12a36.19,36.19,0,0,1,3.32-1.71c.5-.21,1-.45,1.55-.69l1.49-3.27q.91-2,3-6.57,6.42-13.68,12.83-25.92,3.9-7.38,7-12.72c.43-.71.89-1.5,1.39-2.35a80.41,80.41,0,0,1-7.59,3q-3.58,1.17-7,2A46.41,46.41,0,0,1,14.27,41a30.82,30.82,0,0,1-3.68.11,26.57,26.57,0,0,1-3.69-.32,14.17,14.17,0,0,1-3.64-1.12,8,8,0,0,1-1.71-1A8.52,8.52,0,0,1,.16,37.1.69.69,0,0,1,.43,36a.74.74,0,0,1,1.12.24v0a3.73,3.73,0,0,0,1,1.12,6.43,6.43,0,0,0,1.33.91,13.63,13.63,0,0,0,3.26,1,25.2,25.2,0,0,0,3.48.32,23.43,23.43,0,0,0,3.53-.06,48.84,48.84,0,0,0,7-1.12,71,71,0,0,0,6.89-1.92,73,73,0,0,0,9.2-3.69q2.67-4.38,5.07-8T46.66,19a33,33,0,0,1,2.46-2.78A18.86,18.86,0,0,1,50.51,15,11.64,11.64,0,0,1,52,13.8a6.35,6.35,0,0,1,1.76-1,2.92,2.92,0,0,1,1.07-.32,3.58,3.58,0,0,1,1.23.1,2.73,2.73,0,0,1,.67.3,1.53,1.53,0,0,1,.5.56,2.48,2.48,0,0,1,.38,1.23,5.77,5.77,0,0,1-.32,2,9.94,9.94,0,0,1-.7,1.82c-.07.14-.37.69-.91,1.65a21.37,21.37,0,0,1-2.24,2.94A33.78,33.78,0,0,1,48,28.07a54.26,54.26,0,0,1-6.15,4l-2.56,1.33q-1.4,2.3-2.89,4.87-3.8,6.51-7.11,12.55Q22.77,62.91,16.2,76.49c-.93,1.93-1.94,4.1-3,6.52l-.91,1.93c1.07-.36,2.19-.72,3.37-1.07Q19,82.79,22.66,82A129.28,129.28,0,0,1,37,79.7a102.77,102.77,0,0,1,14.53-.54,63.17,63.17,0,0,1,7.33.7A37.28,37.28,0,0,1,66,81.73Zm-57.24,7a7.31,7.31,0,0,0,.75-1.17H9.41l-.11,0a24.59,24.59,0,0,0-3.1,1.66,10.9,10.9,0,0,0-1.33,1l-.32.27-.27.27a2,2,0,0,0-.22.26h.16a2.48,2.48,0,0,0,.38,0,9.24,9.24,0,0,0,1.6-.37A6.74,6.74,0,0,0,8.77,88.73ZM44,26q-1.6,2.36-3.31,5.08a.55.55,0,0,1,.16-.11,1.23,1.23,0,0,0,.27-.16,63.65,63.65,0,0,0,6-3.85,32.59,32.59,0,0,0,5.23-4.76,19.78,19.78,0,0,0,2-2.77,14.57,14.57,0,0,0,.81-1.55,10.39,10.39,0,0,0,.58-1.61,4.24,4.24,0,0,0,.22-1.49.85.85,0,0,0-.16-.43.61.61,0,0,0-.27-.16,1.46,1.46,0,0,0-.59,0,2.09,2.09,0,0,0-.64.21,6.33,6.33,0,0,0-1.34.86,22.39,22.39,0,0,0-2.51,2.29c-.67.75-1.44,1.66-2.3,2.73C46.84,22.07,45.43,24,44,26Z"/><path class="cls-2" d="M37.74,55a4.79,4.79,0,0,0,1.81-.74,7.65,7.65,0,0,0,1.55-1.29,11.66,11.66,0,0,0,1.29-1.55l.53-.85a3.7,3.7,0,0,1,.21-.48l.06-.16.05-.22,0,0a1,1,0,0,0,0-.48c-.07-.11-.14-.16-.21-.16a.54.54,0,0,0-.21.05,1,1,0,0,0-.48.27s-.09,0-.17.11l-.1.1-.27.27-.59.64c-.35.43-.73.89-1.12,1.39a24.43,24.43,0,0,0-2,2.94c-.28.57-.53,1.1-.75,1.6a7.28,7.28,0,0,0-.48,1.55,1.07,1.07,0,0,0,0,.38,2.94,2.94,0,0,1-.05.37l.05.16V59l0,.16.06.16v.06l0,.1.05.11c.11.11.16.18.16.21l.16.11.11.05.06.06a0,0,0,0,1,.05.05h.11a1.13,1.13,0,0,0,.64,0,3.62,3.62,0,0,0,.75-.21,13.34,13.34,0,0,0,1.55-.75,33.5,33.5,0,0,0,3-2.08c.89-.72,1.81-1.52,2.78-2.41.21-.21.42-.19.64.06a.38.38,0,0,1,0,.58c-1,1-1.87,1.88-2.73,2.62a23.52,23.52,0,0,1-3,2.35,12.2,12.2,0,0,1-1.71.91,3.35,3.35,0,0,1-1,.32,2.91,2.91,0,0,1-1.23.06,1.69,1.69,0,0,1-.37-.11.32.32,0,0,0-.16-.05l-.11-.11-.26-.11-.27-.21-.43-.48a1.86,1.86,0,0,1-.16-.27l-.11-.11,0-.16a1.09,1.09,0,0,1-.11-.26l-.1-.32a.57.57,0,0,1-.06-.27l0-.32c0-.39,0-.75,0-1.07a12.27,12.27,0,0,1,1.29-3.8,20.79,20.79,0,0,1,2-3.31q.59-.8,1.17-1.5c.25-.28.48-.53.7-.74a4.28,4.28,0,0,0,.37-.32l.48-.38a1.89,1.89,0,0,1,.59-.27,3.4,3.4,0,0,1,.64-.21,2,2,0,0,1,1.55.32,1.81,1.81,0,0,1,.8,1.34,2.19,2.19,0,0,1-.21,1.33l0,0-.16.32-.1.27c-.11.18-.22.35-.32.53s-.43.63-.65.91a19.61,19.61,0,0,1-1.55,1.6,9.11,9.11,0,0,1-1.81,1.34,6.16,6.16,0,0,1-2.19.8.44.44,0,0,1-.54-.37A.45.45,0,0,1,37.74,55Z"/><path class="cls-2" d="M73,54.58a.41.41,0,0,1-.11.64,18,18,0,0,1-3.47,2,17.2,17.2,0,0,1-3.85,1.18,35.23,35.23,0,0,1-4,.48L60,59a11.91,11.91,0,0,1-2.46,0,.68.68,0,0,1-.48-.21c-.18.39-.28.62-.32.69-.25.46-.53,1-.85,1.55-.5,1.21-1,2.41-1.5,3.58l-1,2.25-.48,1.12-.26.53a1.62,1.62,0,0,0-.11.3.54.54,0,0,1-.11.24v.1a1.19,1.19,0,0,1-.61.54A.83.83,0,0,1,51,69.7a.85.85,0,0,1-.5-.53,1.2,1.2,0,0,1,0-.75,4.44,4.44,0,0,0,.27-.64l.26-.59.48-1.12,1-2.24q1.11-2.52,2-4.49c.72-1.68,1.34-3.19,1.87-4.55.36-.78.66-1.53.91-2.24s.31-.94.38-1.12,0-.1,0-.19A1.42,1.42,0,0,1,57.7,51a.32.32,0,0,1,.08-.14l.1-.53.06-.11a.81.81,0,0,1,.43-.64,1,1,0,0,1,.77-.13.94.94,0,0,1,.64.45,1,1,0,0,1,.14.8l-.16.64-.22.64a8.24,8.24,0,0,1-.37,1.23.67.67,0,0,0-.11.24.53.53,0,0,1-.11.24c.4-.53.79-1,1.18-1.49a17.59,17.59,0,0,1,1.87-2,10.07,10.07,0,0,1,2.3-1.6,6.53,6.53,0,0,1,1.44-.43,7.25,7.25,0,0,1,.8,0,3.49,3.49,0,0,1,.43,0,1.8,1.8,0,0,1,.43.11,1.55,1.55,0,0,1,.8.69,1.87,1.87,0,0,1,.32.91,2.23,2.23,0,0,1,0,.85,1.77,1.77,0,0,1,0,.38l0,.21v.11l-.06.05c-.18.64-.32,1.11-.42,1.39s-.31.61-.7,1.29a9.94,9.94,0,0,1-3.05,3.15,9.38,9.38,0,0,0,1.07-.16,19.16,19.16,0,0,0,3.64-1,16,16,0,0,0,3.36-1.77C72.6,54.3,72.81,54.33,73,54.58ZM62.75,51.11a21.1,21.1,0,0,0-3.37,4c-.53.82-1.1,1.76-1.71,2.83l1.44-.21a9.81,9.81,0,0,0,6.68-4.44,8.44,8.44,0,0,0,.65-1.07.38.38,0,0,1,0-.16.78.78,0,0,1,.11-.18c0-.06.07-.12.1-.19a1.61,1.61,0,0,1,.22-.53A.64.64,0,0,0,67,51v-.11a1.86,1.86,0,0,1,.11-.27v-.48a.67.67,0,0,0-.06-.32.52.52,0,0,0-.21-.21l-.16-.06-.21,0H65.9a4.14,4.14,0,0,0-1.12.27A7.59,7.59,0,0,0,62.75,51.11Z"/><path class="cls-2" d="M104.44,39.67a.6.6,0,0,1,.29.08.88.88,0,0,1,.24.19.78.78,0,0,1,.16.24.68.68,0,0,1,.05.29.75.75,0,0,1-.24.59.81.81,0,0,1-.56.21c-2.31-.11-4.93-.14-7.85-.11h-.7L94.44,44q-2.4,5-4.33,9.35-2.19,5-3.9,9.57-2,5.34-3.15,9.83a.62.62,0,0,1-.86.48.58.58,0,0,1-.48-.8,96,96,0,0,1,3-10.05C85.78,59.25,87,56,88.4,52.66c1-2.28,2-4.71,3.16-7.27-1.79,2.56-3.44,4.88-5,6.94-1.17,1.54-2.29,2.94-3.36,4.23q-2,2.3-3.69,3.95a21.19,21.19,0,0,1-2.09,1.77A13,13,0,0,1,75,63.77l-.7.27a6.29,6.29,0,0,1-.8.16,3,3,0,0,1-1.71-.27,2.17,2.17,0,0,1-.8-.59,1.89,1.89,0,0,1-.48-.74A4.43,4.43,0,0,1,70.12,61v-.1a13.34,13.34,0,0,1,.54-3.16,15.07,15.07,0,0,1,1.12-2.94,21.57,21.57,0,0,1,1.66-2.67,11.59,11.59,0,0,1,2.29-2.3,5.45,5.45,0,0,1,1.5-.85,3.36,3.36,0,0,1,.48-.16H78s0-.06.11-.06h.16a1.71,1.71,0,0,1,.85.22,1.42,1.42,0,0,1,.59.64,2.38,2.38,0,0,1,.16,1.17,2.49,2.49,0,0,1,0,.46,2.18,2.18,0,0,1-.16.45,3.63,3.63,0,0,1-.38.81l-.48.69a8.58,8.58,0,0,1-2.46,2.14,4.78,4.78,0,0,1-1.6.53,3.1,3.1,0,0,1-.86,0l-.32-.1A13.85,13.85,0,0,0,71.83,61,6.1,6.1,0,0,0,72,62a1.09,1.09,0,0,0,.48.53,1.29,1.29,0,0,0,.86.16,2.58,2.58,0,0,0,.53,0,4.48,4.48,0,0,0,.59-.22,9.75,9.75,0,0,0,2.14-1.23,17.17,17.17,0,0,0,2-1.6,48.43,48.43,0,0,0,3.69-3.79c1.1-1.22,2.24-2.57,3.42-4.07q3-3.9,6.2-8.71c.25-.43.62-1,1.12-1.82-1.53,0-3,.09-4.38.16q-4.61.23-7.86.54a47.78,47.78,0,0,0-7.64,1.28h0c-.36.11-.58,0-.67-.4a.53.53,0,0,1,.4-.72l1-.21q.85-.23,1-.27l1-.22.48,0,.48-.11c1.1-.17,2.42-.35,4-.53,2.2-.28,4.84-.52,7.91-.69,1.67-.08,3.45-.15,5.34-.22.28-.5.53-.92.75-1.28a3.54,3.54,0,0,1,.21-.38q1.5-3.3,2-4.38s0,0,0-.1a1.26,1.26,0,0,1,.72-.57,1.09,1.09,0,0,1,.89.14,1,1,0,0,1,.5.64,1.3,1.3,0,0,1,0,.85c-.29.61-1.05,2.18-2.3,4.71l-.16.32Q101,39.57,104.44,39.67ZM75.09,53.35c-.35.46-.71,1-1.07,1.5a3,3,0,0,0,1.71-.59,7.38,7.38,0,0,0,1.88-1.93,6.29,6.29,0,0,1,.32-.58,3.62,3.62,0,0,0,.21-.54.53.53,0,0,0,0-.26v-.38a2.26,2.26,0,0,1-.26.11,5.38,5.38,0,0,0-1,.69A14.84,14.84,0,0,0,75.09,53.35Zm3.1-2.94,0,0Z"/><path class="cls-2" d="M102.35,54.53a.36.36,0,0,1,.05.58,11.9,11.9,0,0,1-.9,1.07l-1,1c-.64.64-1.3,1.26-2,1.87s-1.39,1.28-2,1.81l-1.06.86a11.83,11.83,0,0,1-1.18.8,1.2,1.2,0,0,1-.37.21,2.07,2.07,0,0,1-.43.16h-.16a.43.43,0,0,1-.22.06.73.73,0,0,0-.26-.06.68.68,0,0,1-.22,0,1.43,1.43,0,0,1-.53-.48,2.39,2.39,0,0,1-.37-1,6.73,6.73,0,0,1,0-.85,13,13,0,0,1,.69-2.78c.25-.68.57-1.46,1-2.35a.34.34,0,0,1-.22-.22.67.67,0,0,1,.11-.8l.05-.05.32-.32A5.41,5.41,0,0,0,94,53.4a13,13,0,0,1,.86-1.07l0,0a.92.92,0,0,1,.75-.21,1,1,0,0,1,.69.37.93.93,0,0,1,.11,1.12,3.21,3.21,0,0,1-.16.3,3.16,3.16,0,0,0-.16.32,1.71,1.71,0,0,1-.16.29l-.16.27c-.21.46-.41.85-.59,1.18-.46.89-.84,1.69-1.12,2.4a8.57,8.57,0,0,0-.75,2.35,4.15,4.15,0,0,0-.05.54v.1a.53.53,0,0,0,.27-.1c.28-.15.64-.36,1.06-.64l1.07-.75c.64-.5,1.34-1,2.09-1.66s1.33-1.19,2-1.76l1-.91.91-.91v0C101.89,54.31,102.1,54.31,102.35,54.53Zm-6-3.05a1,1,0,0,1-.53-.53,1,1,0,0,1,0-.81,15.43,15.43,0,0,1,1-1.71,1,1,0,0,1,.64-.4,1,1,0,0,1,.78.14.92.92,0,0,1,.43.64,1,1,0,0,1-.19.8A7.32,7.32,0,0,0,97.7,51a.94.94,0,0,1-.91.64A1,1,0,0,1,96.36,51.48Z"/><path class="cls-2" d="M121.64,40.58a1,1,0,0,1,1,1,1.08,1.08,0,0,1-.29.75.84.84,0,0,1-.73.27h0l-3.31-.06h-3.37l-6.68,0h-.54c-.32.61-.53,1-.64,1.28q-1.81,3.69-3.47,7.59-1.71,4.17-3,7.81c-.47,1.35-.86,2.6-1.18,3.74a.6.6,0,0,1,.64-.06.56.56,0,0,1,.16.81,9.68,9.68,0,0,0-.48.9,5.69,5.69,0,0,0-.43.86c-.07.21-.32.85-.74,1.92a.6.6,0,0,1-.86.43.7.7,0,0,1-.43-.64,10,10,0,0,1,.22-2.25l.1-.53.11-.53q.06-.16.27-1,.42-1.81,1.17-4.11c.82-2.5,1.79-5.15,2.89-8q1.6-4,3.31-7.75l.27-.53H99.78v.1a.92.92,0,0,1-.37.51.62.62,0,0,1-.59.08h0a4,4,0,0,0-.43-.1L97.86,43l-1.07-.16c-.67-.11-1.37-.23-2.08-.37a.64.64,0,0,1-.54-.8.6.6,0,0,1,.64-.54c.29,0,.86-.07,1.71-.11h1.66l3.37-.1,4.86-.11c.29-.6.57-1.16.86-1.66a31,31,0,0,1,2.24-3.68.81.81,0,0,1,.64-.43,1.07,1.07,0,0,1,.78.19.93.93,0,0,1,.4.66,1.1,1.1,0,0,1-.16.75h0v.05A23.58,23.58,0,0,0,109,40.1a1.11,1.11,0,0,0-.22.34c-.07.16-.12.28-.16.35l6.31-.11,3.37,0C120.06,40.59,121.18,40.58,121.64,40.58Z"/><path class="cls-2" d="M177.2,54.15a.38.38,0,0,1,.19.59c-.68,1.32-1.61,2.9-2.78,4.76q-1.4,2.3-2.94,4.65-3.37,4.91-6.52,8.87c-1.39,1.74-2.59,3.13-3.58,4.17a21.82,21.82,0,0,1-2,2,11.56,11.56,0,0,1-1.13.91,5.62,5.62,0,0,1-1.33.75,2.32,2.32,0,0,1-.91.22,1.94,1.94,0,0,1-.59,0,1.75,1.75,0,0,1-.59-.22,2.13,2.13,0,0,1-.8-.85,3.13,3.13,0,0,1-.32-.86,6.31,6.31,0,0,1-.16-1.55,11.5,11.5,0,0,1,.11-1.49,19,19,0,0,1,.43-2.78c.07-.32.17-.79.32-1.39s.3-1.09.37-1.34q.8-2.94,3.1-10.48l3.26-10.47q1.92-6.2,3-10.42.85-3,1.39-5.29a50.14,50.14,0,0,0,.9-5.3,12.22,12.22,0,0,0,.06-2.51,1.82,1.82,0,0,0-.27-.91c-.07-.07-.12-.1-.16-.1a1.81,1.81,0,0,0-.32.05,3,3,0,0,0-1,.48c-.32.22-.66.47-1,.75-.57.5-1.21,1.12-1.92,1.87-1,1.11-2.21,2.48-3.53,4.12l-1.66,2.13c-.36.43-.93,1.14-1.71,2.14q-3.32,4.13-6.68,8.66c-.64.85-1.71,2.32-3.21,4.38-1.14,1.61-2.19,3.1-3.15,4.49q-3.48,5-6.09,9-3,4.65-5.78,9.25a215.46,215.46,0,0,0-10.42,19.19l0,0a1.08,1.08,0,0,1-.62.51,1,1,0,0,1-1.25-1.31l.43-1.23,0-.32.11-.32.21-.59c0-.07.16-.41.37-1s.4-1.07.54-1.39l1.76-4.76,3.58-9.51,7.33-19,7.26-18.92,3.64-9.46L145,19.63l.16-.59c-.08.1-.16.22-.27.35l-.32.37a2.55,2.55,0,0,0-.27.35q-1.27,1.49-3.69,4.65l-1.76,2.35-1.71,2.4q-1.77,2.46-3.42,4.87a.88.88,0,0,1-.64.45,1,1,0,0,1-.78-.16,1,1,0,0,1-.43-.67.88.88,0,0,1,.19-.75.16.16,0,0,1,.05-.1q1.29-1.5,3.75-4.6l3.68-4.65,3.64-4.7L145,16.85a2.22,2.22,0,0,0,.24-.3,3,3,0,0,1,.24-.32l.24-.29.24-.27a1.65,1.65,0,0,1,.21-.32,3.93,3.93,0,0,1,.27-.32s.09-.09.16-.16a2.57,2.57,0,0,0,.21-.24l.16-.19a1,1,0,0,1,.67-.35,1,1,0,0,1,.72.24,1,1,0,0,1,.32,1l0,.21-.43,1.23-.21.59-.22.59-.9,2.4-1.77,4.76-3.63,9.51-7.27,18.92-7.32,19-2.62,6.9q7.11-12.13,16.78-26c1-1.39,2-2.88,3.15-4.49l1.05-1.41c.41-.55.8-1.09,1.17-1.61l1-1.41q3.32-4.54,6.63-8.71c.82-1,1.39-1.71,1.71-2.14l1.66-2.14A49.72,49.72,0,0,1,161,27.27a26.31,26.31,0,0,1,2-2c.43-.35.82-.66,1.17-.91s.47-.32.64-.43a2.61,2.61,0,0,1,.81-.26,2.55,2.55,0,0,1,1-.11,2.26,2.26,0,0,1,1,.64,1.91,1.91,0,0,1,.48.8,4,4,0,0,1,.16.81,8.17,8.17,0,0,1,.11,1.49c0,.43,0,.91-.05,1.45a53,53,0,0,1-.91,5.5q-.48,2.35-1.28,5.34Q165,43.78,163.12,50.2q-.17.48-3.16,10.47-1.65,5.46-3.1,10.48l-.37,1.28-.32,1.28c-.25,1.11-.41,2-.48,2.57a9.47,9.47,0,0,0-.11,1.28,9.82,9.82,0,0,0,.06,1.18,1,1,0,0,0,.16.37.19.19,0,0,0,0,.16.28.28,0,0,0,.21.06.93.93,0,0,0,.38-.11,5.36,5.36,0,0,0,1.07-.54c.32-.21.65-.46,1-.74q.85-.7,2-1.77,1.81-1.82,3.63-4,3.21-3.84,6.63-8.65c1.1-1.61,2.12-3.12,3.05-4.55,1.17-1.81,2.1-3.37,2.78-4.65A.4.4,0,0,1,177.2,54.15Z"/><path class="cls-2" d="M188,54.47a.41.41,0,0,1,.11.64c-.86,1.18-1.61,2.14-2.25,2.89a9.17,9.17,0,0,1-1.33,1.28l-.81.59-.48.21a3.21,3.21,0,0,1-.58.16,1.78,1.78,0,0,1-.65,0,1.42,1.42,0,0,1-.64-.37,2.65,2.65,0,0,1-.59-1.07,8.79,8.79,0,0,1-.1-2v-.64c-.39.54-.73,1-1,1.34a18,18,0,0,1-1.55,1.82,9.35,9.35,0,0,1-.91.9,4.12,4.12,0,0,1-.64.43,2.42,2.42,0,0,1-1,.32h0l-.32-.05a1.82,1.82,0,0,1-.56-.43,2.4,2.4,0,0,1-.41-.59,3.52,3.52,0,0,1-.16-1.06,5.54,5.54,0,0,1,.38-1.55,13.28,13.28,0,0,1,1.28-2.46,23,23,0,0,1,3.53-4.12,12.48,12.48,0,0,1,2.24-1.66,5.48,5.48,0,0,1,1.55-.53h.48a1.12,1.12,0,0,1,.27.05h0l.11.06a.63.63,0,0,1,.22.05,1.51,1.51,0,0,1,.58.64,1.63,1.63,0,0,1,.11.59,3.53,3.53,0,0,1,0,.8c0,.22-.09.47-.16.75s-.25.82-.43,1.28-.3.8-.48,1.23a4.75,4.75,0,0,1-.32.64,4.75,4.75,0,0,1-.32.64.66.66,0,0,1-1,.22v-.06c-.14.61-.25,1.11-.32,1.5a7.05,7.05,0,0,0-.06.86,3.47,3.47,0,0,0,.06.74.6.6,0,0,0,.26.49l.11.1h.24a.61.61,0,0,0,.3-.08,1.6,1.6,0,0,1,.37-.13,6.67,6.67,0,0,0,.64-.48,11.74,11.74,0,0,0,1.28-1.12,33.62,33.62,0,0,0,2.25-2.73A.41.41,0,0,1,188,54.47ZM175.73,59s0,.06,0,.08a.35.35,0,0,0,.16,0h.16Zm2.94-2.24a20.56,20.56,0,0,0,1.39-1.82l.69-1,.33-.48.16-.27c.1-.14.17-.25.21-.32a.59.59,0,0,1,.91-.11.48.48,0,0,1,.21.32l.32-.8q.17-.64.27-1.17a3.89,3.89,0,0,1,.11-.54v-.32a2.67,2.67,0,0,0-.91.37,8.22,8.22,0,0,0-1.82,1.45,21,21,0,0,0-3.1,3.85A10.6,10.6,0,0,0,176.37,58a3,3,0,0,0-.21,1V59a.4.4,0,0,0,.16-.06,3,3,0,0,0,.85-.59A13.34,13.34,0,0,0,178.67,56.72Z"/><path class="cls-2" d="M203.57,54.58a.4.4,0,0,1-.1.64,17.74,17.74,0,0,1-3.48,2,17,17,0,0,1-3.84,1.18,35.23,35.23,0,0,1-4,.48l-1.55.11a11.91,11.91,0,0,1-2.46,0,.66.66,0,0,1-.48-.21c-.18.39-.28.62-.32.69-.25.46-.53,1-.85,1.55-.5,1.21-1,2.41-1.5,3.58l-1,2.25-.48,1.12-.26.53a1.12,1.12,0,0,0-.11.3.67.67,0,0,1-.11.24v.1a1.23,1.23,0,0,1-.61.54.83.83,0,0,1-.78-.06.86.86,0,0,1-.51-.53,1.28,1.28,0,0,1,0-.75,3.73,3.73,0,0,0,.26-.64l.27-.59.48-1.12,1-2.24q1.13-2.52,2-4.49c.72-1.68,1.34-3.19,1.87-4.55.36-.78.66-1.53.91-2.24s.3-.94.38-1.12a.8.8,0,0,1,0-.19,1.42,1.42,0,0,1,.06-.21.25.25,0,0,1,.08-.14l.1-.53.06-.11a.8.8,0,0,1,.42-.64,1.08,1.08,0,0,1,.78-.13.94.94,0,0,1,.64.45,1,1,0,0,1,.13.8l-.16.64c0,.11-.1.32-.21.64a9.72,9.72,0,0,1-.37,1.23.54.54,0,0,0-.11.24.53.53,0,0,1-.11.24c.39-.53.79-1,1.18-1.49a16.73,16.73,0,0,1,1.87-2,10.07,10.07,0,0,1,2.3-1.6,6.53,6.53,0,0,1,1.44-.43,7.25,7.25,0,0,1,.8,0,3.49,3.49,0,0,1,.43,0,2,2,0,0,1,.43.11,1.55,1.55,0,0,1,.8.69,1.87,1.87,0,0,1,.32.91,2.23,2.23,0,0,1,.05.85,2.82,2.82,0,0,1-.05.38l0,.21v.11l-.06.05c-.18.64-.32,1.11-.43,1.39a14,14,0,0,1-.69,1.29,9.94,9.94,0,0,1-3,3.15,9.38,9.38,0,0,0,1.07-.16,19.16,19.16,0,0,0,3.64-1,16,16,0,0,0,3.36-1.77C203.22,54.3,203.43,54.33,203.57,54.58Zm-10.2-3.47a21.1,21.1,0,0,0-3.37,4c-.53.82-1.11,1.76-1.71,2.83l1.44-.21a9.81,9.81,0,0,0,6.68-4.44,8.44,8.44,0,0,0,.65-1.07.38.38,0,0,1,.05-.16.78.78,0,0,1,.11-.18c0-.06.07-.12.1-.19a1.61,1.61,0,0,1,.22-.53.64.64,0,0,0,.05-.16v-.11a1.16,1.16,0,0,1,.11-.27v-.48a.67.67,0,0,0-.06-.32.52.52,0,0,0-.21-.21l-.16-.06-.21,0h-.54a4.05,4.05,0,0,0-1.12.27A7.59,7.59,0,0,0,193.37,51.11Z"/><path class="cls-2" d="M217.2,35.5a2.41,2.41,0,0,1,.16,1,5.7,5.7,0,0,1-.16.7,4,4,0,0,1-.16.64l-.21.53a2,2,0,0,1-.21.54c-.11.25-.18.42-.22.53-.25.61-.59,1.3-1,2.09A52.87,52.87,0,0,1,210.2,49q-1.65,2-3,3.36c-.61.61-1.16,1.13-1.66,1.55s-.69.58-.91.75l-.42.27c-.15.46-.27.89-.38,1.28a31.64,31.64,0,0,0-1,4.17,8.58,8.58,0,0,0,0,1,2.85,2.85,0,0,0,.1.86.42.42,0,0,0,.06.21h.16a2,2,0,0,0,.42-.05,8.35,8.35,0,0,0,1.82-.75c.61-.32,1.21-.68,1.82-1.07a36.92,36.92,0,0,0,3.47-2.67,18.19,18.19,0,0,0,1.55-1.5l.7-.8a6.82,6.82,0,0,0,.58-.85v-.06a.38.38,0,0,1,.59-.16.37.37,0,0,1,.22.54,8.79,8.79,0,0,1-1.18,2.08q-.58.75-1.5,1.71a27.37,27.37,0,0,1-3.47,3.05c-.68.5-1.32.92-1.92,1.28-.4.21-.75.41-1.07.59a12.55,12.55,0,0,1-1.18.43,2.76,2.76,0,0,1-.75.1,2.14,2.14,0,0,1-.85,0,1.82,1.82,0,0,1-.54-.27,3.48,3.48,0,0,1-.42-.37,2.35,2.35,0,0,1-.38-.8,4.19,4.19,0,0,1-.21-1.39c0-.4,0-.8.05-1.23a27,27,0,0,1,.91-4.55c.39-1.38.87-2.83,1.44-4.32.5-1.29,1.09-2.69,1.77-4.23s1.44-2.86,2.08-4a40.43,40.43,0,0,1,2.46-3.91c.5-.67,1-1.28,1.44-1.81a12.65,12.65,0,0,1,1.77-1.66,7.4,7.4,0,0,1,1.12-.69,5,5,0,0,1,1.39-.43h.37a1.21,1.21,0,0,1,.54.1,1.14,1.14,0,0,1,.59.33A1.57,1.57,0,0,1,217.2,35.5Zm-1.87,1.71c0-.14.07-.29.11-.43a1.9,1.9,0,0,0,.05-.37,3.43,3.43,0,0,0-1.55.8,9.75,9.75,0,0,0-1.44,1.44,19.5,19.5,0,0,0-1.28,1.66,40.64,40.64,0,0,0-2.3,3.74,65.1,65.1,0,0,0-3.64,8q-.21.54-.42,1,.69-.64,1.44-1.5c1-1.17,2-2.33,2.83-3.47s1.62-2.26,2.51-3.58,1.55-2.55,2.2-3.8c.39-.78.69-1.44.9-2a4.11,4.11,0,0,1,.22-.48c.1-.29.18-.47.21-.54Z"/><path class="cls-2" d="M214.42,55a4.83,4.83,0,0,0,1.82-.74,7.65,7.65,0,0,0,1.55-1.29,10.88,10.88,0,0,0,1.28-1.55l.54-.85a2.68,2.68,0,0,1,.21-.48l.06-.16.05-.22,0,0a1,1,0,0,0,0-.48c-.07-.11-.14-.16-.21-.16a.63.63,0,0,0-.22.05,1.06,1.06,0,0,0-.48.27.27.27,0,0,0-.16.11l-.1.1c-.15.15-.24.23-.27.27l-.59.64c-.36.43-.73.89-1.12,1.39a24.43,24.43,0,0,0-2,2.94c-.28.57-.53,1.1-.75,1.6a6.29,6.29,0,0,0-.48,1.55,1.07,1.07,0,0,0-.05.38,2,2,0,0,1-.06.37l.06.16V59l.05.16.06.16v.06l0,.1.05.11c.11.11.16.18.16.21l.16.11.11.05,0,.06s.06,0,.06.05h.1a1.15,1.15,0,0,0,.64,0,3.31,3.31,0,0,0,.75-.21,12,12,0,0,0,1.55-.75,32.12,32.12,0,0,0,3-2.08c.89-.72,1.81-1.52,2.78-2.41.21-.21.42-.19.64.06a.39.39,0,0,1,0,.58c-1,1-1.87,1.88-2.73,2.62a24.25,24.25,0,0,1-3,2.35,12.2,12.2,0,0,1-1.71.91,3.35,3.35,0,0,1-1,.32,2.91,2.91,0,0,1-1.23.06,1.52,1.52,0,0,1-.37-.11.34.34,0,0,0-.16-.05l-.11-.11-.27-.11-.26-.21-.43-.48a1.23,1.23,0,0,1-.16-.27l-.11-.11,0-.16a1.09,1.09,0,0,1-.11-.26l-.1-.32a.57.57,0,0,1-.06-.27l0-.32c0-.39,0-.75,0-1.07a12.22,12.22,0,0,1,1.28-3.8,21.55,21.55,0,0,1,2-3.31c.4-.53.79-1,1.18-1.5.25-.28.48-.53.7-.74s.26-.22.37-.32l.48-.38a1.79,1.79,0,0,1,.59-.27,3.16,3.16,0,0,1,.64-.21,2,2,0,0,1,1.55.32,1.84,1.84,0,0,1,.8,1.34,2.19,2.19,0,0,1-.21,1.33l.05,0-.16.32-.11.27c-.1.18-.21.35-.32.53s-.42.63-.64.91a19.61,19.61,0,0,1-1.55,1.6,8.88,8.88,0,0,1-1.82,1.34,6,6,0,0,1-2.19.8.44.44,0,0,1-.53-.37A.44.44,0,0,1,214.42,55Z"/><path class="cls-2" d="M235.56,54.77a.41.41,0,0,1-.24.61.52.52,0,0,0-.21.11l-.22.1-.42.27-.86.59-1.76,1.07c-1.32.85-2.5,1.6-3.53,2.24a4.92,4.92,0,0,1-.27,2.14,7.48,7.48,0,0,1-1.55,2.41A6.34,6.34,0,0,1,224,65.8a4.55,4.55,0,0,1-1.55.16,3.07,3.07,0,0,1-1.47-.61,3.32,3.32,0,0,1-1-1.2,1.88,1.88,0,0,1-.21-.81,2.58,2.58,0,0,1,.05-.53.92.92,0,0,1,.38-.48.57.57,0,0,1,.43-.16l.37,0a3.25,3.25,0,0,0,.43-.08,5.27,5.27,0,0,0,.91-.37c.53-.22,1.14-.5,1.81-.86a20,20,0,0,0,2-1.07v-.21l-.05-.11a1.41,1.41,0,0,0-.43-.69A6.57,6.57,0,0,0,225,58q-1.75-1.5-1.92-1.71a6.45,6.45,0,0,1-.91-1.23,3.24,3.24,0,0,1-.27-.8,2.39,2.39,0,0,1,0-.91,3.85,3.85,0,0,1,.32-1.5,5.34,5.34,0,0,1,.75-1.23,10.86,10.86,0,0,1,1.87-1.92,15.93,15.93,0,0,1,2.19-1.44,8.53,8.53,0,0,1,2.62-.86.81.81,0,0,1,.51.06,1,1,0,0,1,.4.32,1.16,1.16,0,0,1,.21.48v.26a.54.54,0,0,1,0,.22l-.06.11a.89.89,0,0,0-.1.26l-.22.38a7.43,7.43,0,0,0-.42.64L229,50.41q-.42.65-.75,1.23l-.37.64c0,.11-.07.22-.11.32a.54.54,0,0,0,0,.16.05.05,0,0,0-.06.06q0,.42-.45.42t-.45-.48a2.39,2.39,0,0,0,.1-.26.43.43,0,0,1,.06-.22,1.59,1.59,0,0,1,.16-.37l.32-.7c.21-.53.41-1,.58-1.39s.22-.58.33-.91l-.43.22A10.06,10.06,0,0,0,226,50.3a9,9,0,0,0-1.5,1.55,2.59,2.59,0,0,0-.69,1.55v.11a1.27,1.27,0,0,0,.16.62,3.73,3.73,0,0,0,.59.72l1.76,1.55q.58.52,1,1c.17.25.32.46.42.64a2.5,2.5,0,0,1,.33.7l3.26-2,1.76-1.07.85-.54.49-.26.21-.16a1.7,1.7,0,0,1,.27-.16A.42.42,0,0,1,235.56,54.77Zm-9.49,6.44v-.16l-1.33.74c-.72.4-1.36.72-1.93,1l-1,.37-.59.11a.34.34,0,0,1-.21,0,1.07,1.07,0,0,0,.16.32,1.42,1.42,0,0,0,.64.59,1.08,1.08,0,0,0,.8.21,2.19,2.19,0,0,0,.86-.21A5.76,5.76,0,0,0,225,62.92,5.7,5.7,0,0,0,226.07,61.21Zm-4.27-7.86s0,0-.05,0Zm6.84-6,.05,0v0Z"/></g></g></svg>